<?xml version="1.0" encoding="UTF-8" standalone="no"?>
<!-- Created with Inkscape (http://www.inkscape.org/) -->

<svg
   xmlns:dc="http://purl.org/dc/elements/1.1/"
   xmlns:cc="http://creativecommons.org/ns#"
   xmlns:rdf="http://www.w3.org/1999/02/22-rdf-syntax-ns#"
   xmlns:svg="http://www.w3.org/2000/svg"
   xmlns="http://www.w3.org/2000/svg"
   xmlns:sodipodi="http://sodipodi.sourceforge.net/DTD/sodipodi-0.dtd"
   xmlns:inkscape="http://www.inkscape.org/namespaces/inkscape"
   width="32"
   height="32"
   id="svg2"
   version="1.1"
   inkscape:version="0.48.4 r9939"
   sodipodi:docname="apple.svg">
  <defs
     id="defs4" />
  <sodipodi:namedview
     id="base"
     pagecolor="#ffffff"
     bordercolor="#666666"
     borderopacity="1.0"
     inkscape:pageopacity="0.0"
     inkscape:pageshadow="2"
     inkscape:zoom="7.919596"
     inkscape:cx="30.712285"
     inkscape:cy="5.5223588"
     inkscape:document-units="px"
     inkscape:current-layer="g3"
     showgrid="false"
     inkscape:window-width="1600"
     inkscape:window-height="838"
     inkscape:window-x="-8"
     inkscape:window-y="-8"
     inkscape:window-maximized="1"
     fit-margin-top="0"
     fit-margin-left="0"
     fit-margin-right="0"
     fit-margin-bottom="0" />
  <metadata
     id="metadata7">
    <rdf:RDF>
      <cc:Work
         rdf:about="">
        <dc:format>image/svg+xml</dc:format>
        <dc:type
           rdf:resource="http://purl.org/dc/dcmitype/StillImage" />
        <dc:title></dc:title>
      </cc:Work>
    </rdf:RDF>
  </metadata>
  <g
     inkscape:label="Layer 1"
     inkscape:groupmode="layer"
     id="layer1"
     transform="translate(0,-1036.3576)">
    <g
       style="overflow:visible"
       id="g3"
       transform="matrix(0.05181976,0,0,0.05203676,3.0709507,1038.1152)">
      <path
         clip-rule="evenodd"
         stroke-miterlimit="2.6131"
         d="m 40.444184,203.03854 c 0.166,-0.273 0.342,-0.542 0.518,-0.806 28.447,-43.799 73.319996,-69.434 115.517996,-69.434 42.969,0 69.98,23.555 105.498,23.555 34.463,0 55.454,-23.589 105.132,-23.589 37.534,0 77.329,20.439 105.674,55.781 -7.837,4.292 -14.907,9.165 -21.226,14.521 l -411.113996,-0.028 0,0 z"
         id="path5"
         inkscape:connector-curvature="0"
         style="fill:#61bb46;fill-rule:evenodd;stroke:#61bb46;stroke-width:2.9849;stroke-miterlimit:2.61310005" />
      <path
         clip-rule="evenodd"
         stroke-miterlimit="2.6131"
         d="m 329.42818,93.301536 c 18.032,-23.159 31.748,-55.859 26.777,-89.2920001 -29.482,2.021 -63.965,20.7910001 -84.106,45.2250001 -18.276,22.197 -33.364,55.117004 -27.49,87.095004 32.187,1.001 65.483,-18.218 84.819,-43.028004 l 0,0 z"
         id="path7"
         inkscape:connector-curvature="0"
         style="fill:#61bb46;fill-rule:evenodd;stroke:#61bb46;stroke-width:2.9849;stroke-miterlimit:2.61310005" />
      <path
         clip-rule="evenodd"
         stroke-miterlimit="2.6131"
         d="m 38.976728,202.39315 c -12.250626,19.19288 -20.727113,46.70181 -22.976544,70.8304 l 397.437006,-0.0102 c 4.29717,-26.39752 18.58564,-51.61732 41.233,-70.79103 l -415.693462,-0.0292 0.02346,0 z"
         id="path9"
         style="fill:#fdb827;fill-rule:evenodd;stroke:none"
         inkscape:connector-curvature="0"
         sodipodi:nodetypes="ccccccc" />
      <path
         clip-rule="evenodd"
         stroke-miterlimit="2.6131"
         d="m 19.609184,343.42454 c -3.862,-24.644 -4.487,-48.403 -2.061,-70.2 l 394.340996,-0.01 c -3.857,23.638 -0.62,48.237 9.136,70.225 l -401.415996,-0.015 0,0 z"
         id="path11"
         inkscape:connector-curvature="0"
         style="fill:#f5821f;fill-rule:evenodd;stroke:#f5821f;stroke-width:2.9849;stroke-miterlimit:2.61310005" />
      <path
         clip-rule="evenodd"
         stroke-miterlimit="2.6131"
         d="m 38.881184,413.61954 c -9.312,-23.584 -15.688,-47.271 -19.272,-70.195 l 401.415996,0.015 c 12.427,28.018 35.425,51.821 67.808,64.053 -0.962,2.139 -1.89,4.185 -2.783,6.157 l -447.168996,-0.03 0,0 z"
         id="path13"
         inkscape:connector-curvature="0"
         style="fill:#e03a3e;fill-rule:evenodd;stroke:#e03a3e;stroke-width:2.9849;stroke-miterlimit:2.61310005" />
      <path
         clip-rule="evenodd"
         stroke-miterlimit="2.6131"
         d="m 486.04918,413.64854 c -11.118,24.443 -17.563,37.129 -32.949,60.547 -2.07,3.145 -4.209,6.362 -6.436,9.609 l -370.526996,0.034 c -1.187,-1.768 -2.363,-3.535 -3.521,-5.288 -13.853,-21.099 -25.068,-42.974 -33.735,-64.932 l 447.167996,0.03 0,0 z"
         id="path15"
         inkscape:connector-curvature="0"
         style="fill:#963d97;fill-rule:evenodd;stroke:#963d97;stroke-width:2.9849;stroke-miterlimit:2.61310005" />
      <path
         clip-rule="evenodd"
         stroke-miterlimit="2.6131"
         d="m 446.66418,483.80454 c -22.666,33.203 -53.096,69.741 -90.02,70.088 -36.03,0.327 -45.273,-23.447 -94.155,-23.179 -48.882,0.273 -59.087,23.594 -95.117,23.257 -38.521,-0.356 -68.432996,-36.24 -91.234996,-70.132 l 370.526996,-0.034 0,0 z"
         id="path19"
         inkscape:connector-curvature="0"
         style="fill:#009ddc;fill-rule:evenodd;stroke:#009ddc;stroke-width:2.9849;stroke-miterlimit:2.61310005" />
    </g>
  </g>
</svg>
