<?xml version="1.0" encoding="UTF-8" standalone="no"?>
<!-- Created with Inkscape (http://www.inkscape.org/) -->

<svg
   xmlns:dc="http://purl.org/dc/elements/1.1/"
   xmlns:cc="http://creativecommons.org/ns#"
   xmlns:rdf="http://www.w3.org/1999/02/22-rdf-syntax-ns#"
   xmlns:svg="http://www.w3.org/2000/svg"
   xmlns="http://www.w3.org/2000/svg"
   xmlns:sodipodi="http://sodipodi.sourceforge.net/DTD/sodipodi-0.dtd"
   xmlns:inkscape="http://www.inkscape.org/namespaces/inkscape"
   width="32"
   height="32"
   id="svg2"
   version="1.1"
   inkscape:version="0.48.4 r9939"
   sodipodi:docname="dead.svg">
  <defs
     id="defs4" />
  <sodipodi:namedview
     id="base"
     pagecolor="#ffffff"
     bordercolor="#666666"
     borderopacity="1.0"
     inkscape:pageopacity="0.0"
     inkscape:pageshadow="2"
     inkscape:zoom="15.839192"
     inkscape:cx="13.470992"
     inkscape:cy="8.8621622"
     inkscape:document-units="px"
     inkscape:current-layer="layer1"
     showgrid="false"
     inkscape:window-width="1600"
     inkscape:window-height="838"
     inkscape:window-x="-8"
     inkscape:window-y="-8"
     inkscape:window-maximized="1"
     fit-margin-top="0"
     fit-margin-left="0"
     fit-margin-right="0"
     fit-margin-bottom="0" />
  <metadata
     id="metadata7">
    <rdf:RDF>
      <cc:Work
         rdf:about="">
        <dc:format>image/svg+xml</dc:format>
        <dc:type
           rdf:resource="http://purl.org/dc/dcmitype/StillImage" />
        <dc:title />
      </cc:Work>
    </rdf:RDF>
  </metadata>
  <g
     inkscape:label="Layer 1"
     inkscape:groupmode="layer"
     id="layer1"
     transform="translate(0,-1036.3576)">
    <path
       style="fill:#ff0000;fill-opacity:1;stroke:none"
       d="m 10.227794,-0.00920855 c 2.694592,-0.14453334 4.993442,-0.10077497 7.642452,-0.10077497 0.405988,0 1.831476,-0.0867548 2.080267,0.03764044 1.244266,0.62213311 2.585441,2.23896978 3.724937,3.09359218 0.743523,0.5576421 1.28763,1.0226222 2.146574,1.4520942 0.442068,0.8102063 1.219325,1.3733916 1.957171,1.9571706 0.997645,0.4381497 1.636272,1.2078042 2.146574,1.9571705 0.645857,0.4305715 2.118616,1.115682 2.335978,1.7677666 0.394414,1.183243 0.569904,3.181538 0.284106,4.324716 -0.357776,1.431101 0.126584,3.345184 -0.347241,4.766657 -0.392979,1.178939 -1.016055,2.302356 -1.262691,3.535534 -0.252478,1.262392 1.248623,4.433485 0.252539,5.42957 -1.190978,1.190978 -3.489173,1.53121 -5.303301,1.894036 C 24.169026,30.431147 22.69543,30.818492 21.655145,32 c -0.906738,0.453369 -3.704948,-0.252538 -4.671955,-0.252538 -0.992088,0 -8.018528,1.104633 -8.0812208,1.073287 C 6.5261129,31.632821 3.9396177,30.446913 2.1465741,28.65387 1.6614725,25.101039 3.1906572,22.078062 -0.06313453,20.004439 -0.22632396,17.594986 -1.2754535,14.520079 -0.25253813,12.238891 0.76816778,10.524707 1.3524797,8.9033462 1.894036,7.1249937 2.5939734,5.7251189 4.6905815,5.0907192 5.9346462,4.1576707 7.0206815,2.4772673 8.3569778,0.78193636 10.227794,-0.00920855 z"
       id="path3031"
       inkscape:connector-curvature="0"
       transform="translate(0,1036.3576)"
       sodipodi:nodetypes="cssscccsssssccsscccccc" />
    <rect
       style="fill:#333333;fill-opacity:1;stroke:none"
       id="rect2983"
       width="8"
       height="15.531095"
       x="12"
       y="1052.8264" />
    <path
       style="fill:#333333;fill-opacity:1;stroke:none"
       d="m 8.3968929,1042.0305 16.0361721,-0.2525 5.113897,22.8547 c 0,0 -11.111678,-4.7351 -26.9584462,-0.1894 z"
       id="path3773"
       inkscape:connector-curvature="0"
       sodipodi:nodetypes="ccccc" />
    <rect
       style="fill:#ff0000;fill-opacity:1;fill-rule:nonzero;stroke:none"
       id="rect2990"
       width="8.0812206"
       height="1.8940361"
       x="767.7063"
       y="-721.24713"
       transform="matrix(-0.67454287,0.73823568,-0.73823568,-0.67454287,0,0)" />
    <rect
       style="fill:#ff0000;fill-opacity:1;fill-rule:nonzero;stroke:none"
       id="rect2990-1"
       width="8.0812206"
       height="1.8940361"
       x="789.69489"
       y="695.14606"
       transform="matrix(0.66735915,0.74473604,-0.74473604,0.66735915,0,0)" />
    <rect
       style="fill:#ff0000;fill-opacity:1;fill-rule:nonzero;stroke:none"
       id="rect2990-7"
       width="8.0812206"
       height="1.8940361"
       x="761.36456"
       y="-728.30231"
       transform="matrix(-0.67454287,0.73823568,-0.73823568,-0.67454287,0,0)" />
    <rect
       style="fill:#ff0000;fill-opacity:1;fill-rule:nonzero;stroke:none"
       id="rect2990-1-4"
       width="8.0812206"
       height="1.8940361"
       x="796.08307"
       y="688.133"
       transform="matrix(0.66735915,0.74473604,-0.74473604,0.66735915,0,0)" />
  </g>
</svg>
